<?xml version="1.0" encoding="UTF-8"?>
<svg id="Camada_2" data-name="Camada 2" xmlns="http://www.w3.org/2000/svg" viewBox="0 0 1281.25 791.03">
  <defs>
    <style>
      .cls-1 {
        fill: #fff;
        stroke-width: 0px;
      }
    </style>
  </defs>
  <g id="Camada_1-2" data-name="Camada 1">
    <g>
      <path class="cls-1" d="m578.95,47.19c72.52,1.89,103.05,62.28,103.05,62.28l269.09,445.4c164.12,288.76,330.16,228.36,330.16,228.36-36.26-52.84-145.04-113.24-145.04-113.24-83.97-49.07-200.39-235.91-200.39-235.91l-232.83-369.91C659.11-1.88,590.4,0,590.4,0h-139.79c22.9,43.41,128.34,47.18,128.34,47.18"/>
      <path class="cls-1" d="m162.23,686.64c83.97-96.63,139.07-185.01,166.62-232.72,16.65-28.83,35.9-67.76,43.85-100.05,21.82-88.68-6.58-128.32-6.58-128.32C346.39,462.62,0,791.03,0,791.03c65.23-2.79,107.43-41.32,162.23-104.39"/>
    </g>
  </g>
</svg>